<mxfile host="app.diagrams.net" agent="Mozilla/5.0 (Windows NT 10.0; Win64; x64) AppleWebKit/537.36 (KHTML, like Gecko) Chrome/130.0.0.0 Safari/537.36 Edg/130.0.0.0" version="24.8.6" pages="2">
  <diagram id="C5RBs43oDa-KdzZeNtuy" name="main">
    <mxGraphModel dx="727" dy="2024" grid="1" gridSize="10" guides="1" tooltips="1" connect="1" arrows="1" fold="1" page="1" pageScale="1" pageWidth="827" pageHeight="1169" math="0" shadow="0">
      <root>
        <mxCell id="WIyWlLk6GJQsqaUBKTNV-0" />
        <mxCell id="WIyWlLk6GJQsqaUBKTNV-1" parent="WIyWlLk6GJQsqaUBKTNV-0" />
        <mxCell id="3UNjSWwL6XDz81JM-0QY-27" value="" style="verticalLabelPosition=bottom;verticalAlign=top;html=1;shape=process;whiteSpace=wrap;rounded=1;size=0.14;arcSize=6;" vertex="1" parent="WIyWlLk6GJQsqaUBKTNV-1">
          <mxGeometry x="860" y="-300" width="670" height="1140" as="geometry" />
        </mxCell>
        <mxCell id="3UNjSWwL6XDz81JM-0QY-0" style="edgeStyle=orthogonalEdgeStyle;rounded=0;orthogonalLoop=1;jettySize=auto;html=1;exitX=0.5;exitY=1;exitDx=0;exitDy=0;entryX=0.5;entryY=0;entryDx=0;entryDy=0;shadow=0;strokeColor=default;strokeWidth=1;align=center;verticalAlign=middle;fontFamily=Helvetica;fontSize=11;fontColor=default;labelBackgroundColor=none;endArrow=block;endFill=0;endSize=8;" edge="1" parent="WIyWlLk6GJQsqaUBKTNV-1" source="3UNjSWwL6XDz81JM-0QY-1" target="3UNjSWwL6XDz81JM-0QY-6">
          <mxGeometry relative="1" as="geometry" />
        </mxCell>
        <mxCell id="3UNjSWwL6XDz81JM-0QY-1" value="运行Python主脚本" style="rounded=1;whiteSpace=wrap;html=1;fontSize=12;glass=0;strokeWidth=1;shadow=0;" vertex="1" parent="WIyWlLk6GJQsqaUBKTNV-1">
          <mxGeometry x="1050" y="130" width="120" height="40" as="geometry" />
        </mxCell>
        <mxCell id="3UNjSWwL6XDz81JM-0QY-2" style="edgeStyle=orthogonalEdgeStyle;rounded=0;orthogonalLoop=1;jettySize=auto;html=1;exitX=1;exitY=0.5;exitDx=0;exitDy=0;entryX=0;entryY=0.5;entryDx=0;entryDy=0;shadow=0;strokeColor=default;strokeWidth=1;align=center;verticalAlign=middle;fontFamily=Helvetica;fontSize=11;fontColor=default;labelBackgroundColor=none;endArrow=block;endFill=0;endSize=8;" edge="1" parent="WIyWlLk6GJQsqaUBKTNV-1" source="3UNjSWwL6XDz81JM-0QY-6" target="3UNjSWwL6XDz81JM-0QY-8">
          <mxGeometry relative="1" as="geometry" />
        </mxCell>
        <mxCell id="3UNjSWwL6XDz81JM-0QY-3" value="N" style="edgeLabel;html=1;align=center;verticalAlign=middle;resizable=0;points=[];rounded=0;shadow=0;strokeColor=default;strokeWidth=1;fontFamily=Helvetica;fontSize=11;fontColor=default;labelBackgroundColor=none;" vertex="1" connectable="0" parent="3UNjSWwL6XDz81JM-0QY-2">
          <mxGeometry x="0.04" y="8" relative="1" as="geometry">
            <mxPoint as="offset" />
          </mxGeometry>
        </mxCell>
        <mxCell id="3UNjSWwL6XDz81JM-0QY-4" style="edgeStyle=orthogonalEdgeStyle;rounded=0;orthogonalLoop=1;jettySize=auto;html=1;exitX=0.5;exitY=1;exitDx=0;exitDy=0;entryX=0.5;entryY=0;entryDx=0;entryDy=0;shadow=0;strokeColor=default;strokeWidth=1;align=center;verticalAlign=middle;fontFamily=Helvetica;fontSize=11;fontColor=default;labelBackgroundColor=none;endArrow=block;endFill=0;endSize=8;" edge="1" parent="WIyWlLk6GJQsqaUBKTNV-1" source="3UNjSWwL6XDz81JM-0QY-6" target="3UNjSWwL6XDz81JM-0QY-13">
          <mxGeometry relative="1" as="geometry" />
        </mxCell>
        <mxCell id="3UNjSWwL6XDz81JM-0QY-5" value="Y" style="edgeLabel;html=1;align=center;verticalAlign=middle;resizable=0;points=[];fontFamily=Helvetica;fontSize=11;fontColor=default;labelBackgroundColor=none;" vertex="1" connectable="0" parent="3UNjSWwL6XDz81JM-0QY-4">
          <mxGeometry x="-0.0938" y="1" relative="1" as="geometry">
            <mxPoint x="-9" as="offset" />
          </mxGeometry>
        </mxCell>
        <mxCell id="3UNjSWwL6XDz81JM-0QY-6" value="是否定义了任务列表？" style="rhombus;whiteSpace=wrap;html=1;shadow=0;fontFamily=Helvetica;fontSize=12;align=center;strokeWidth=1;spacing=6;spacingTop=-4;" vertex="1" parent="WIyWlLk6GJQsqaUBKTNV-1">
          <mxGeometry x="1060" y="220" width="100" height="80" as="geometry" />
        </mxCell>
        <mxCell id="3UNjSWwL6XDz81JM-0QY-7" style="edgeStyle=orthogonalEdgeStyle;shape=connector;rounded=0;orthogonalLoop=1;jettySize=auto;html=1;shadow=0;strokeColor=default;strokeWidth=1;align=center;verticalAlign=middle;fontFamily=Helvetica;fontSize=11;fontColor=default;labelBackgroundColor=none;endArrow=block;endFill=0;endSize=8;" edge="1" parent="WIyWlLk6GJQsqaUBKTNV-1" source="3UNjSWwL6XDz81JM-0QY-8" target="3UNjSWwL6XDz81JM-0QY-15">
          <mxGeometry relative="1" as="geometry" />
        </mxCell>
        <mxCell id="3UNjSWwL6XDz81JM-0QY-8" value="记录本地日志并邮件通知" style="rounded=1;whiteSpace=wrap;html=1;fontSize=12;glass=0;strokeWidth=1;shadow=0;" vertex="1" parent="WIyWlLk6GJQsqaUBKTNV-1">
          <mxGeometry x="1230" y="240" width="120" height="40" as="geometry" />
        </mxCell>
        <mxCell id="3UNjSWwL6XDz81JM-0QY-9" style="edgeStyle=orthogonalEdgeStyle;shape=connector;rounded=0;orthogonalLoop=1;jettySize=auto;html=1;exitX=1;exitY=0.5;exitDx=0;exitDy=0;entryX=0;entryY=0.5;entryDx=0;entryDy=0;shadow=0;strokeColor=default;strokeWidth=1;align=center;verticalAlign=middle;fontFamily=Helvetica;fontSize=11;fontColor=default;labelBackgroundColor=none;endArrow=block;endFill=0;endSize=8;" edge="1" parent="WIyWlLk6GJQsqaUBKTNV-1" source="3UNjSWwL6XDz81JM-0QY-13" target="3UNjSWwL6XDz81JM-0QY-8">
          <mxGeometry relative="1" as="geometry" />
        </mxCell>
        <mxCell id="3UNjSWwL6XDz81JM-0QY-10" value="N" style="edgeLabel;html=1;align=center;verticalAlign=middle;resizable=0;points=[];fontFamily=Helvetica;fontSize=11;fontColor=default;labelBackgroundColor=none;rounded=0;shadow=0;strokeColor=default;strokeWidth=1;" vertex="1" connectable="0" parent="3UNjSWwL6XDz81JM-0QY-9">
          <mxGeometry x="-0.4869" relative="1" as="geometry">
            <mxPoint x="15" y="-1" as="offset" />
          </mxGeometry>
        </mxCell>
        <mxCell id="3UNjSWwL6XDz81JM-0QY-11" value="" style="edgeStyle=orthogonalEdgeStyle;shape=connector;rounded=0;orthogonalLoop=1;jettySize=auto;html=1;shadow=0;strokeColor=default;strokeWidth=1;align=center;verticalAlign=middle;fontFamily=Helvetica;fontSize=11;fontColor=default;labelBackgroundColor=none;endArrow=block;endFill=0;endSize=8;" edge="1" parent="WIyWlLk6GJQsqaUBKTNV-1" source="3UNjSWwL6XDz81JM-0QY-13" target="3UNjSWwL6XDz81JM-0QY-18">
          <mxGeometry relative="1" as="geometry" />
        </mxCell>
        <mxCell id="3UNjSWwL6XDz81JM-0QY-12" value="Y" style="edgeLabel;html=1;align=center;verticalAlign=middle;resizable=0;points=[];fontFamily=Helvetica;fontSize=11;fontColor=default;labelBackgroundColor=none;" vertex="1" connectable="0" parent="3UNjSWwL6XDz81JM-0QY-11">
          <mxGeometry x="-0.275" y="-2" relative="1" as="geometry">
            <mxPoint x="-7" as="offset" />
          </mxGeometry>
        </mxCell>
        <mxCell id="3UNjSWwL6XDz81JM-0QY-13" value="任务和可执行文件是否对应？" style="rhombus;whiteSpace=wrap;html=1;shadow=0;fontFamily=Helvetica;fontSize=12;align=center;strokeWidth=1;spacing=6;spacingTop=-4;" vertex="1" parent="WIyWlLk6GJQsqaUBKTNV-1">
          <mxGeometry x="1060" y="360" width="100" height="80" as="geometry" />
        </mxCell>
        <mxCell id="3UNjSWwL6XDz81JM-0QY-14" value="" style="line;strokeWidth=2;html=1;" vertex="1" parent="WIyWlLk6GJQsqaUBKTNV-1">
          <mxGeometry x="965" y="100" width="460" height="10" as="geometry" />
        </mxCell>
        <mxCell id="3UNjSWwL6XDz81JM-0QY-15" value="结束" style="strokeWidth=2;html=1;shape=mxgraph.flowchart.terminator;whiteSpace=wrap;" vertex="1" parent="WIyWlLk6GJQsqaUBKTNV-1">
          <mxGeometry x="1240" y="760" width="100" height="60" as="geometry" />
        </mxCell>
        <mxCell id="3UNjSWwL6XDz81JM-0QY-16" style="edgeStyle=orthogonalEdgeStyle;shape=connector;rounded=0;orthogonalLoop=1;jettySize=auto;html=1;exitX=0.5;exitY=1;exitDx=0;exitDy=0;entryX=0.5;entryY=0;entryDx=0;entryDy=0;shadow=0;strokeColor=default;strokeWidth=1;align=center;verticalAlign=middle;fontFamily=Helvetica;fontSize=11;fontColor=default;labelBackgroundColor=none;endArrow=block;endFill=0;endSize=8;" edge="1" parent="WIyWlLk6GJQsqaUBKTNV-1" source="3UNjSWwL6XDz81JM-0QY-18" target="3UNjSWwL6XDz81JM-0QY-23">
          <mxGeometry relative="1" as="geometry" />
        </mxCell>
        <mxCell id="3UNjSWwL6XDz81JM-0QY-17" value="Y" style="edgeLabel;html=1;align=center;verticalAlign=middle;resizable=0;points=[];fontFamily=Helvetica;fontSize=11;fontColor=default;labelBackgroundColor=none;" vertex="1" connectable="0" parent="3UNjSWwL6XDz81JM-0QY-16">
          <mxGeometry x="0.051" y="2" relative="1" as="geometry">
            <mxPoint x="-14" as="offset" />
          </mxGeometry>
        </mxCell>
        <mxCell id="3UNjSWwL6XDz81JM-0QY-18" value="加载可执行文件" style="rounded=1;whiteSpace=wrap;html=1;fontSize=12;glass=0;strokeWidth=1;shadow=0;arcSize=43;" vertex="1" parent="WIyWlLk6GJQsqaUBKTNV-1">
          <mxGeometry x="1050" y="500" width="120" height="40" as="geometry" />
        </mxCell>
        <mxCell id="3UNjSWwL6XDz81JM-0QY-19" style="edgeStyle=orthogonalEdgeStyle;shape=connector;rounded=0;orthogonalLoop=1;jettySize=auto;html=1;entryX=0;entryY=0.5;entryDx=0;entryDy=0;shadow=0;strokeColor=default;strokeWidth=1;align=center;verticalAlign=middle;fontFamily=Helvetica;fontSize=11;fontColor=default;labelBackgroundColor=none;endArrow=block;endFill=0;endSize=8;" edge="1" parent="WIyWlLk6GJQsqaUBKTNV-1" source="3UNjSWwL6XDz81JM-0QY-23" target="3UNjSWwL6XDz81JM-0QY-8">
          <mxGeometry relative="1" as="geometry" />
        </mxCell>
        <mxCell id="3UNjSWwL6XDz81JM-0QY-20" value="N" style="edgeLabel;html=1;align=center;verticalAlign=middle;resizable=0;points=[];fontFamily=Helvetica;fontSize=11;fontColor=default;labelBackgroundColor=none;" vertex="1" connectable="0" parent="3UNjSWwL6XDz81JM-0QY-19">
          <mxGeometry x="-0.6423" relative="1" as="geometry">
            <mxPoint x="16" as="offset" />
          </mxGeometry>
        </mxCell>
        <mxCell id="3UNjSWwL6XDz81JM-0QY-21" value="" style="edgeStyle=orthogonalEdgeStyle;shape=connector;rounded=0;orthogonalLoop=1;jettySize=auto;html=1;shadow=0;strokeColor=default;strokeWidth=1;align=center;verticalAlign=middle;fontFamily=Helvetica;fontSize=11;fontColor=default;labelBackgroundColor=none;endArrow=block;endFill=0;endSize=8;" edge="1" parent="WIyWlLk6GJQsqaUBKTNV-1" source="3UNjSWwL6XDz81JM-0QY-23" target="3UNjSWwL6XDz81JM-0QY-25">
          <mxGeometry relative="1" as="geometry" />
        </mxCell>
        <mxCell id="3UNjSWwL6XDz81JM-0QY-22" value="Y" style="edgeLabel;html=1;align=center;verticalAlign=middle;resizable=0;points=[];fontFamily=Helvetica;fontSize=11;fontColor=default;labelBackgroundColor=none;" vertex="1" connectable="0" parent="3UNjSWwL6XDz81JM-0QY-21">
          <mxGeometry x="-0.1788" y="-3" relative="1" as="geometry">
            <mxPoint x="-12" as="offset" />
          </mxGeometry>
        </mxCell>
        <mxCell id="3UNjSWwL6XDz81JM-0QY-23" value="运行任务完成？" style="rhombus;whiteSpace=wrap;html=1;shadow=0;fontFamily=Helvetica;fontSize=12;align=center;strokeWidth=1;spacing=6;spacingTop=-4;" vertex="1" parent="WIyWlLk6GJQsqaUBKTNV-1">
          <mxGeometry x="1060" y="586" width="100" height="80" as="geometry" />
        </mxCell>
        <mxCell id="3UNjSWwL6XDz81JM-0QY-24" style="edgeStyle=orthogonalEdgeStyle;shape=connector;rounded=0;orthogonalLoop=1;jettySize=auto;html=1;entryX=0;entryY=0.5;entryDx=0;entryDy=0;shadow=0;strokeColor=default;strokeWidth=1;align=center;verticalAlign=middle;fontFamily=Helvetica;fontSize=11;fontColor=default;labelBackgroundColor=none;endArrow=block;endFill=0;endSize=8;" edge="1" parent="WIyWlLk6GJQsqaUBKTNV-1" source="3UNjSWwL6XDz81JM-0QY-25" target="3UNjSWwL6XDz81JM-0QY-8">
          <mxGeometry relative="1" as="geometry" />
        </mxCell>
        <mxCell id="3UNjSWwL6XDz81JM-0QY-25" value="记录运行结果并统计运行时信息" style="rounded=1;whiteSpace=wrap;html=1;fontSize=12;glass=0;strokeWidth=1;shadow=0;arcSize=43;" vertex="1" parent="WIyWlLk6GJQsqaUBKTNV-1">
          <mxGeometry x="1050" y="720" width="120" height="40" as="geometry" />
        </mxCell>
        <mxCell id="3UNjSWwL6XDz81JM-0QY-26" value="&lt;h1 style=&quot;margin-top: 0px;&quot;&gt;TaskMonitor&lt;/h1&gt;&lt;p&gt;TM并不是一个单独的项目，而是提供了一个任务进展通知的框架。概括来说，宿主机能通过该框架来进行及时的通知，内容包括运行的进展和关键信息&lt;/p&gt;" style="text;html=1;whiteSpace=wrap;overflow=hidden;rounded=0;" vertex="1" parent="WIyWlLk6GJQsqaUBKTNV-1">
          <mxGeometry x="870" y="1000" width="300" height="120" as="geometry" />
        </mxCell>
        <mxCell id="tQsY3bMfcunAoEEP58DL-1" style="edgeStyle=orthogonalEdgeStyle;shape=connector;rounded=0;orthogonalLoop=1;jettySize=auto;html=1;exitX=0.5;exitY=1;exitDx=0;exitDy=0;entryX=0.5;entryY=0;entryDx=0;entryDy=0;shadow=0;strokeColor=default;strokeWidth=1;align=center;verticalAlign=middle;fontFamily=Helvetica;fontSize=11;fontColor=default;labelBackgroundColor=none;endArrow=block;endFill=0;endSize=8;" edge="1" parent="WIyWlLk6GJQsqaUBKTNV-1" source="3UNjSWwL6XDz81JM-0QY-28" target="tQsY3bMfcunAoEEP58DL-0">
          <mxGeometry relative="1" as="geometry" />
        </mxCell>
        <mxCell id="3UNjSWwL6XDz81JM-0QY-28" value="编译&lt;span style=&quot;background-color: initial;&quot;&gt;源代码&lt;/span&gt;" style="rounded=1;whiteSpace=wrap;html=1;fontSize=12;glass=0;strokeWidth=1;shadow=0;" vertex="1" parent="WIyWlLk6GJQsqaUBKTNV-1">
          <mxGeometry x="1050" y="-140" width="120" height="40" as="geometry" />
        </mxCell>
        <mxCell id="tQsY3bMfcunAoEEP58DL-8" style="edgeStyle=orthogonalEdgeStyle;shape=connector;rounded=0;orthogonalLoop=1;jettySize=auto;html=1;exitX=1;exitY=0.5;exitDx=0;exitDy=0;entryX=1;entryY=0.5;entryDx=0;entryDy=0;shadow=0;strokeColor=default;strokeWidth=1;align=center;verticalAlign=middle;fontFamily=Helvetica;fontSize=11;fontColor=default;labelBackgroundColor=none;endArrow=block;endFill=0;endSize=8;" edge="1" parent="WIyWlLk6GJQsqaUBKTNV-1" source="tQsY3bMfcunAoEEP58DL-0" target="tQsY3bMfcunAoEEP58DL-5">
          <mxGeometry relative="1" as="geometry">
            <Array as="points">
              <mxPoint x="1160" y="-30" />
              <mxPoint x="1200" y="-30" />
              <mxPoint x="1200" y="-190" />
            </Array>
          </mxGeometry>
        </mxCell>
        <mxCell id="tQsY3bMfcunAoEEP58DL-9" value="N" style="edgeLabel;html=1;align=center;verticalAlign=middle;resizable=0;points=[];fontFamily=Helvetica;fontSize=11;fontColor=default;labelBackgroundColor=none;" vertex="1" connectable="0" parent="tQsY3bMfcunAoEEP58DL-8">
          <mxGeometry x="-0.0783" y="-1" relative="1" as="geometry">
            <mxPoint x="9" as="offset" />
          </mxGeometry>
        </mxCell>
        <mxCell id="tQsY3bMfcunAoEEP58DL-10" value="" style="edgeStyle=orthogonalEdgeStyle;shape=connector;rounded=0;orthogonalLoop=1;jettySize=auto;html=1;shadow=0;strokeColor=default;strokeWidth=1;align=center;verticalAlign=middle;fontFamily=Helvetica;fontSize=11;fontColor=default;labelBackgroundColor=none;endArrow=block;endFill=0;endSize=8;" edge="1" parent="WIyWlLk6GJQsqaUBKTNV-1" source="tQsY3bMfcunAoEEP58DL-0" target="tQsY3bMfcunAoEEP58DL-2">
          <mxGeometry relative="1" as="geometry" />
        </mxCell>
        <mxCell id="tQsY3bMfcunAoEEP58DL-11" value="Y" style="edgeLabel;html=1;align=center;verticalAlign=middle;resizable=0;points=[];fontFamily=Helvetica;fontSize=11;fontColor=default;labelBackgroundColor=none;" vertex="1" connectable="0" parent="tQsY3bMfcunAoEEP58DL-10">
          <mxGeometry x="-0.5918" y="2" relative="1" as="geometry">
            <mxPoint x="-11" as="offset" />
          </mxGeometry>
        </mxCell>
        <mxCell id="tQsY3bMfcunAoEEP58DL-0" value="确定是否生成可执行文件？" style="rhombus;whiteSpace=wrap;html=1;shadow=0;fontFamily=Helvetica;fontSize=12;align=center;strokeWidth=1;spacing=6;spacingTop=-4;" vertex="1" parent="WIyWlLk6GJQsqaUBKTNV-1">
          <mxGeometry x="1060" y="-71" width="100" height="80" as="geometry" />
        </mxCell>
        <mxCell id="tQsY3bMfcunAoEEP58DL-2" value="本地测试可执行" style="rounded=1;whiteSpace=wrap;html=1;fontSize=12;glass=0;strokeWidth=1;shadow=0;" vertex="1" parent="WIyWlLk6GJQsqaUBKTNV-1">
          <mxGeometry x="1050" y="40" width="120" height="40" as="geometry" />
        </mxCell>
        <mxCell id="tQsY3bMfcunAoEEP58DL-4" style="edgeStyle=orthogonalEdgeStyle;shape=connector;rounded=0;orthogonalLoop=1;jettySize=auto;html=1;exitX=0.5;exitY=1;exitDx=0;exitDy=0;exitPerimeter=0;entryX=0.5;entryY=0;entryDx=0;entryDy=0;shadow=0;strokeColor=default;strokeWidth=1;align=center;verticalAlign=middle;fontFamily=Helvetica;fontSize=11;fontColor=default;labelBackgroundColor=none;endArrow=block;endFill=0;endSize=8;" edge="1" parent="WIyWlLk6GJQsqaUBKTNV-1" source="tQsY3bMfcunAoEEP58DL-3" target="tQsY3bMfcunAoEEP58DL-5">
          <mxGeometry relative="1" as="geometry" />
        </mxCell>
        <mxCell id="tQsY3bMfcunAoEEP58DL-3" value="开始" style="strokeWidth=2;html=1;shape=mxgraph.flowchart.start_1;whiteSpace=wrap;fontFamily=Helvetica;fontSize=11;fontColor=default;labelBackgroundColor=none;" vertex="1" parent="WIyWlLk6GJQsqaUBKTNV-1">
          <mxGeometry x="1060" y="-290" width="100" height="60" as="geometry" />
        </mxCell>
        <mxCell id="tQsY3bMfcunAoEEP58DL-6" style="edgeStyle=orthogonalEdgeStyle;shape=connector;rounded=0;orthogonalLoop=1;jettySize=auto;html=1;entryX=0.5;entryY=0;entryDx=0;entryDy=0;shadow=0;strokeColor=default;strokeWidth=1;align=center;verticalAlign=middle;fontFamily=Helvetica;fontSize=11;fontColor=default;labelBackgroundColor=none;endArrow=block;endFill=0;endSize=8;" edge="1" parent="WIyWlLk6GJQsqaUBKTNV-1" source="tQsY3bMfcunAoEEP58DL-5" target="3UNjSWwL6XDz81JM-0QY-28">
          <mxGeometry relative="1" as="geometry" />
        </mxCell>
        <mxCell id="tQsY3bMfcunAoEEP58DL-5" value="&lt;span style=&quot;background-color: initial;&quot;&gt;编写源代码&lt;/span&gt;" style="rounded=1;whiteSpace=wrap;html=1;fontSize=12;glass=0;strokeWidth=1;shadow=0;" vertex="1" parent="WIyWlLk6GJQsqaUBKTNV-1">
          <mxGeometry x="1050" y="-210" width="120" height="40" as="geometry" />
        </mxCell>
        <mxCell id="tQsY3bMfcunAoEEP58DL-12" value="" style="strokeWidth=2;html=1;shape=mxgraph.flowchart.annotation_2;align=left;labelPosition=right;pointerEvents=1;fontFamily=Helvetica;fontSize=11;fontColor=default;labelBackgroundColor=none;" vertex="1" parent="WIyWlLk6GJQsqaUBKTNV-1">
          <mxGeometry x="940" y="-250" width="50" height="310" as="geometry" />
        </mxCell>
        <mxCell id="tQsY3bMfcunAoEEP58DL-13" value="生成可执行文件" style="text;html=1;align=center;verticalAlign=middle;whiteSpace=wrap;rounded=0;fontFamily=Helvetica;fontSize=11;fontColor=default;labelBackgroundColor=none;" vertex="1" parent="WIyWlLk6GJQsqaUBKTNV-1">
          <mxGeometry x="870" y="-101" width="60" height="30" as="geometry" />
        </mxCell>
        <mxCell id="tQsY3bMfcunAoEEP58DL-14" value="" style="strokeWidth=2;html=1;shape=mxgraph.flowchart.annotation_2;align=left;labelPosition=right;pointerEvents=1;fontFamily=Helvetica;fontSize=11;fontColor=default;labelBackgroundColor=none;" vertex="1" parent="WIyWlLk6GJQsqaUBKTNV-1">
          <mxGeometry x="940" y="160" width="50" height="580" as="geometry" />
        </mxCell>
        <mxCell id="tQsY3bMfcunAoEEP58DL-15" value="执行任务" style="text;html=1;align=center;verticalAlign=middle;whiteSpace=wrap;rounded=0;fontFamily=Helvetica;fontSize=11;fontColor=default;labelBackgroundColor=none;" vertex="1" parent="WIyWlLk6GJQsqaUBKTNV-1">
          <mxGeometry x="880" y="435" width="60" height="30" as="geometry" />
        </mxCell>
      </root>
    </mxGraphModel>
  </diagram>
  <diagram id="RXuRH02o1VRd-cSxmBtQ" name="TODO">
    <mxGraphModel dx="1554" dy="855" grid="1" gridSize="10" guides="1" tooltips="1" connect="1" arrows="1" fold="1" page="1" pageScale="1" pageWidth="827" pageHeight="1169" math="0" shadow="0">
      <root>
        <mxCell id="0" />
        <mxCell id="1" parent="0" />
      </root>
    </mxGraphModel>
  </diagram>
</mxfile>
